mtllib model.mtl
o object_0
g object_0
usemtl object_0
v -0.6112020015716553 0.03753317892551422 -0.6693519949913025 
v -0.5686140060424805 -0.14754821360111237 -1.4441584348678589 
v -0.8241419792175293 0.02695710025727749 -1.3042627573013306 
v -0.9306120276451111 -0.002127119107171893 -1.5410091876983643 
v -0.9944940209388733 0.05604131892323494 -1.2612179517745972 
v -1.2287280559539795 0.04282122105360031 -1.4979643821716309 
v -1.6013730764389038 0.01770303025841713 -1.7669944763183594 
v -1.2606689929962158 -0.07351566106081009 -1.8100392818450928 
v -1.6865490674972534 -0.17398841679096222 -2.079069137573242 
v -0.9306120276451111 -0.13036209344863892 -1.8530840873718262 
v -0.9412590265274048 -0.19778460264205933 -2.1221139430999756 
v -0.7496129870414734 -0.13036209344863892 -1.8100392818450928 
v -0.5366730093955994 -0.18720851838588715 -2.1113526821136475 
v -2.037899971008301 0.034889161586761475 -2.0145020484924316 
v -0.4765055775642395 -0.0630226880311966 -1.8254940509796143 
v -0.4880620241165161 -0.0630226880311966 -1.400667428970337 
v -0.07203159481287003 0.029867548495531082 -1.5958579778671265 
v -0.12981358170509338 0.029867548495531082 -1.3777037858963013 
v 0.36711159348487854 0.3056354522705078 -1.3432583808898926 
v -0.1413699984550476 0.029867548495531082 -1.2284404039382935 
v -0.06047520413994789 0.029867548495531082 -0.9873225688934326 
v -0.45339280366897583 -0.0630226880311966 -1.159549593925476 
v -0.3378288149833679 -0.0630226880311966 -2.0321664810180664 
v 0.020419592037796974 0.029867548495531082 -1.6877124309539795 
v 0.25154760479927063 0.029867548495531082 -1.76808500289917 
v 0.36711159348487854 0.029867548495531082 -1.779566764831543 
v 0.17065280675888062 -0.0630226880311966 -2.101057291030884 
v 0.37866801023483276 -0.0630226880311966 -2.112539052963257 
v 0.5404576063156128 0.029867548495531082 -1.7566032409667969 
v 0.7022472023963928 -0.0630226880311966 -2.112539052963257 
v 0.6329087615013123 0.029867548495531082 -1.6532670259475708 
v 0.9333751797676086 -0.0630226880311966 -1.9977209568023682 
v 0.7022472023963928 0.029867548495531082 -1.4580763578414917 
v 0.9218187928199768 -0.0630226880311966 -1.5384490489959717 
v 0.7484728097915649 0.029867548495531082 -1.251404047012329 
v 0.9796007871627808 -0.0630226880311966 -1.2054767608642578 
v 0.7253599762916565 0.029867548495531082 -1.0332497358322144 
v 0.9449316263198853 -0.0630226880311966 -0.8495410084724426 
v 0.5751267671585083 0.029867548495531082 -0.8265774250030518 
v 0.14754000306129456 0.029867548495531082 -0.8954682350158691 
v 0.03197599574923515 -0.0630226880311966 -0.6658322215080261 
v -0.45339280366897583 -0.0630226880311966 -0.6543503999710083 
v 0.6329087615013123 -0.0630226880311966 -0.6658322215080261 
v -0.002409786218777299 -0.0639588013291359 0.784455418586731 
v -0.539592981338501 -0.0639588013291359 0.9730601906776428 
v 0.12481778860092163 0.07772088050842285 0.873210608959198 
v -0.016546189785003662 0.07772088050842285 1.0618153810501099 
v 0.5206369757652283 0.4983324110507965 1.1394761800765991 
v 0.054135799407958984 0.07772088050842285 1.3169865608215332 
v 0.2379090040922165 0.07772088050842285 0.7067946195602417 
v 0.5347734093666077 0.07772088050842285 0.7622665762901306 
v 0.760955810546875 0.07772088050842285 0.8953993916511536 
v 0.5489097833633423 -0.0639588013291359 0.4960010051727295 
v 0.9305925965309143 -0.0639588013291359 0.7067946195602417 
v 0.8599106073379517 0.07772088050842285 1.0729098320007324 
v 1.057820200920105 -0.0639588013291359 1.0396265983581543 
v 0.9023197889328003 0.07772088050842285 1.239325761795044 
v 1.1567749977111816 -0.0639588013291359 1.2947977781295776 
v 0.8316377997398376 0.07772088050842285 1.3502697944641113 
v 1.2557297945022583 -0.0639588013291359 1.6276297569274902 
v 0.6054553985595703 0.07772088050842285 1.4612138271331787 
v -0.002409786218777299 -0.0639588013291359 0.3295850157737732 
v 0.676137387752533 -0.0639588013291359 1.7385737895965576 
v 0.30859097838401794 0.07772088050842285 1.4501193761825562 
v -0.34168338775634766 -0.0639588013291359 1.4612138271331787 
v 0.12481778860092163 -0.0639588013291359 1.7052905559539795 
v 1.0246880054473877 -0.06291747838258743 0.3180740475654602 
v 1.5382201671600342 0.05105854198336601 0.7598243951797485 
v 1.4002562761306763 0.024135073646903038 0.3654044270515442 
v 1.6301960945129395 0.05105854198336601 0.7124939560890198 
v 1.7221720218658447 -0.00817309133708477 1.2646820545196533 
v 1.3695976734161377 -0.03240421414375305 0.8702620267868042 
v 1.6378607749938965 -0.037788908928632736 1.2962355613708496 
v 1.7834893465042114 -0.00817309133708477 1.469780445098877 
v 1.668519377708435 -0.03150676563382149 1.517110824584961 
v 1.8524712324142456 -0.00817309133708477 1.7379859685897827 
v 1.7145073413848877 -0.06291747838258743 1.8484236001968384 
v 1.9980998039245605 -0.06291747838258743 1.6275484561920166 
v 1.8831299543380737 -0.03150676563382149 1.4066731929779053 
v 1.806483268737793 -0.037788908928632736 1.2489051818847656 
v 1.837141990661621 -0.03240421414375305 0.7282708287239075 
v 1.5612142086029053 0.024135073646903038 0.28652042150497437 
v 1.8907946348190308 -0.06291747838258743 -0.15523000061511993 
v -0.47435301542282104 -0.044829100370407104 0.7557623982429504 
v -0.36788296699523926 -0.16248799860477448 0.2715083956718445 
v -0.8150569796562195 0.037135519087314606 0.5297772288322449 
v -0.7405279874801636 -0.009134829975664616 0.23922479152679443 
v -1.3687009811401367 0.11910013854503632 0.16389639675617218 
v -0.7405279874801636 -0.009134829975664616 0.05628439784049988 
v -0.8576449751853943 -0.009134829975664616 -0.2557904124259949 
v -0.37852996587753296 -0.16248799860477448 -0.0082827964797616 
v -0.5275880098342896 -0.16248799860477448 -0.5355815887451172 
v -0.9534680247306824 -0.16248799860477448 -0.6109099984169006 
v -1.0918790102005005 -0.009134829975664616 -0.352641224861145 
v -1.6135820150375366 -0.16248799860477448 -0.5893875956535339 
v -1.528406023979187 -0.009134829975664616 -0.352641224861145 
v -2.039462089538574 -0.044829100370407104 -0.4387308359146118 
v -1.8052279949188232 0.026559440419077873 -0.23426799476146698 
v -1.0578999519348145 0.18072034418582916 0.9515138268470764 
v -0.8875479698181152 -0.0929357260465622 1.5541410446166992 
v -0.6639609932899475 -0.05856345593929291 1.3927229642868042 
v -0.41907998919487 -0.20001854002475739 1.6617529392242432 
v -0.8130189776420593 -0.2238147109746933 1.8339321613311768 
v -1.3560160398483276 -0.09690175950527191 1.543379783630371 
v -1.483780026435852 -0.2621529996395111 1.7801262140274048 
v -1.5157209634780884 -0.08500365912914276 1.3496781587600708 
v -1.9735419750213623 -0.21984867751598358 1.758603811264038 
v -1.5689560174942017 -0.0638515055179596 1.0698870420455933 
v -1.9948359727859497 -0.22778074443340302 1.1774990558624268 
v -1.5689560174942017 -0.0493093878030777 0.9299914240837097 
v -1.9628950357437134 -0.21191661059856415 0.9192302227020264 
v -1.5263680219650269 -0.03608928620815277 0.660961389541626 
v -1.8990130424499512 -0.16696827113628387 0.434976190328598 
v 0.05344998091459274 -0.12609708309173584 0.07518798112869263 
v 0.33027201890945435 -0.10494491457939148 0.13975518941879272 
v 0.42609500885009766 -0.007116180378943682 -0.23688679933547974 
v 0.8732690215110779 -0.007116180378943682 -0.1400359869003296 
v 0.8093870282173157 0.03915416821837425 -0.5597227811813354 
v 1.0968559980392456 -0.007116180378943682 -0.21536439657211304 
v 1.2352670431137085 0.0021378914825618267 -0.45211079716682434 
v 1.3736779689788818 -0.1287411004304886 -0.40906599164009094 
v 1.2991490364074707 -0.020336277782917023 -0.9256036281585693 
v 1.0542680025100708 -0.005794171709567308 -0.9040812253952026 
v 1.2991490364074707 -0.07586070150136948 -1.3237680196762085 
v 1.4056190252304077 -0.10494491457939148 -0.947126030921936 
v 0.9158570170402527 -0.10230089724063873 0.16127759218215942 
v 1.3949719667434692 -0.1181650161743164 0.15051639080047607 
vn 0.361329 0.921635 -0.141528
vn 0.401419 0.898818 -0.176038
vn 0.302754 0.936670 -0.176038
vn 0.220842 0.938478 -0.265495
vn 0.137316 0.981575 -0.132872
vn 0.142894 0.940805 -0.307354
vn 0.234777 0.825154 -0.513810
vn 0.118550 0.918543 -0.377126
vn 0.207679 0.834693 -0.510057
vn 0.054753 0.947292 -0.315658
vn 0.022659 0.961488 -0.273910
vn 0.159768 0.968907 -0.188926
vn 0.071631 0.984708 -0.158808
vn 0.256421 0.789184 -0.558065
vn -0.183867 0.979978 -0.076390
vn -0.239311 0.970921 -0.006554
vn -0.297279 0.944243 -0.141528
vn -0.361344 0.931509 -0.041497
vn 0.052802 0.997914 -0.037131
vn -0.354360 0.934372 0.037131
vn -0.213337 0.954069 0.210333
vn -0.246594 0.968920 0.019661
vn -0.111135 0.980327 -0.163120
vn -0.176494 0.942950 -0.282304
vn -0.066039 0.922144 -0.381169
vn 0.009439 0.919381 -0.393255
vn -0.033972 0.968009 -0.248605
vn -0.001888 0.965261 -0.261280
vn 0.142994 0.936632 -0.319801
vn 0.069829 0.975133 -0.210333
vn 0.354435 0.914901 -0.193215
vn 0.189535 0.973424 -0.128540
vn 0.462511 0.879054 -0.115530
vn 0.338630 0.939578 -0.050227
vn 0.471261 0.881667 -0.024029
vn 0.368678 0.929534 -0.006554
vn 0.389168 0.905017 0.171735
vn 0.302515 0.935929 0.180338
vn 0.131571 0.915095 0.381169
vn -0.086674 0.906485 0.413246
vn -0.032061 0.939726 0.340423
vn -0.150385 0.978445 0.141528
vn 0.122198 0.924571 0.360882
vn -0.390576 0.877557 -0.278110
vn -0.280984 0.955117 -0.093804
vn -0.467240 0.819350 -0.332193
vn -0.413261 0.896658 -0.158808
vn 0.090436 0.995210 0.037131
vn -0.353672 0.883430 0.307354
vn -0.214974 0.888561 -0.405273
vn 0.220104 0.789822 -0.572482
vn 0.468814 0.774250 -0.425147
vn 0.165278 0.884159 -0.436974
vn 0.367354 0.867148 -0.336311
vn 0.617982 0.747249 -0.244371
vn 0.516063 0.833470 -0.197500
vn 0.580196 0.813982 -0.028397
vn 0.439503 0.894605 -0.080746
vn 0.368619 0.856670 0.360882
vn 0.248378 0.950061 0.188926
vn 0.094106 0.799107 0.593778
vn -0.183849 0.936367 -0.299027
vn 0.049040 0.909298 0.413246
vn -0.148172 0.808953 0.568894
vn -0.251816 0.948292 0.193215
vn -0.122205 0.907769 0.401274
vn -0.281205 0.955867 0.085100
vn -0.139134 0.986976 0.080746
vn -0.165347 0.986040 0.019661
vn 0.157926 0.987449 -0.002185
vn 0.013217 0.998860 0.045863
vn -0.289886 0.945882 0.145853
vn -0.272117 0.954769 0.119869
vn 0.007552 0.999969 -0.002185
vn -0.242921 0.967368 0.072033
vn -0.039643 0.998161 0.045863
vn -0.239288 0.965975 0.098153
vn 0.274016 0.960631 -0.045863
vn 0.250156 0.965187 -0.076390
vn 0.311763 0.949736 -0.028397
vn 0.319048 0.947716 -0.006554
vn 0.163505 0.985263 -0.050227
vn 0.266745 0.962675 -0.045863
vn 0.350962 0.928686 -0.119869
vn 0.366614 0.928216 -0.063314
vn 0.295589 0.948823 -0.111189
vn 0.295530 0.953513 -0.058953
vn 0.099874 0.981538 -0.163120
vn 0.295671 0.953968 -0.050227
vn 0.193180 0.955455 -0.223129
vn 0.366712 0.928465 -0.058953
vn 0.248282 0.935110 -0.252835
vn 0.064185 0.885387 -0.460402
vn 0.047196 0.928223 -0.369018
vn 0.003779 0.873207 -0.487334
vn 0.003778 0.921131 -0.389234
vn 0.018876 0.891500 -0.452627
vn 0.020754 0.925929 -0.377126
vn -0.204192 0.947939 0.244371
vn 0.043384 0.905935 0.421188
vn 0.133504 0.916489 0.377126
vn 0.124099 0.916138 0.381169
vn 0.032061 0.898902 0.436974
vn -0.094185 0.905736 0.413246
vn -0.054641 0.899717 0.433040
vn -0.257279 0.943169 0.210333
vn -0.183783 0.960200 0.210333
vn -0.364817 0.927571 0.080746
vn -0.325922 0.944486 0.041497
vn -0.382478 0.923384 0.032765
vn -0.361462 0.931811 0.032765
vn -0.375695 0.926741 -0.002185
vn -0.361586 0.932132 0.019661
vn -0.120377 0.967328 0.223129
vn -0.079195 0.965362 0.248605
vn -0.045286 0.974703 0.218868
vn 0.005658 0.978523 0.206059
vn 0.043416 0.998004 0.045863
vn 0.172726 0.974749 0.141528
vn 0.340149 0.939455 0.041497
vn 0.534497 0.842796 0.063314
vn 0.373722 0.925666 -0.058953
vn 0.071644 0.994501 -0.076390
vn 0.284662 0.949375 -0.132872
vn 0.628356 0.777555 -0.024029
vn 0.016974 0.961606 0.273910
vn 0.226395 0.955538 0.188926
vt 0.356242 0.620163
vt 0.365715 0.829861
vt 0.302007 0.791528
vt 0.277992 0.850481
vt 0.259424 0.782989
vt 0.201589 0.841806
vt 0.108608 0.903439
vt 0.193774 0.916611
vt 0.086725 0.990462
vt 0.277944 0.927421
vt 0.277897 0.992188
vt 0.328627 0.913840
vt 0.386320 0.986101
vt -0.001662 0.953445
vt 0.387572 0.925251
vt 0.384467 0.819546
vt 0.489295 0.864016
vt 0.475498 0.810745
vt 0.597361 0.798917
vt 0.472038 0.773631
vt 0.494352 0.703922
vt 0.392275 0.757519
vt 0.422752 0.978523
vt 0.510810 0.887951
vt 0.569324 0.908627
vt 0.598470 0.910909
vt 0.547010 0.996032
vt 0.599357 0.996823
vt 0.640215 0.904156
vt 0.678277 0.997615
vt 0.662174 0.878824
vt 0.735327 0.968977
vt 0.679652 0.831979
vt 0.733774 0.853725
vt 0.691497 0.780011
vt 0.747837 0.768695
vt 0.687150 0.716169
vt 0.741671 0.665970
vt 0.654455 0.661919
vt 0.547586 0.678264
vt 0.522211 0.616610
vt 0.399195 0.616191
vt 0.671445 0.621127
vt 0.502978 0.269027
vt 0.371709 0.220374
vt 0.535430 0.246455
vt 0.502382 0.199231
vt 0.633705 0.178002
vt 0.518010 0.134201
vt 0.564625 0.286877
vt 0.637395 0.274183
vt 0.692855 0.240259
vt 0.639892 0.339603
vt 0.737408 0.287137
vt 0.717546 0.194639
vt 0.765572 0.204127
vt 0.728454 0.154780
vt 0.791836 0.139270
vt 0.711468 0.125320
vt 0.816202 0.054397
vt 0.653947 0.098068
vt 0.503955 0.382537
vt 0.671800 0.027666
vt 0.580525 0.099715
vt 0.420494 0.097289
vt 0.536732 0.035291
vt 0.763394 0.375704
vt 0.891073 0.265877
vt 0.859635 0.357349
vt 0.919614 0.275386
vt 0.932335 0.145881
vt 0.845481 0.242769
vt 0.909964 0.138298
vt 0.950028 0.094668
vt 0.923650 0.084257
vt 0.973686 0.026064
vt 0.944793 0.000488
vt 1.002930 0.051941
vt 0.972867 0.111579
vt 0.952163 0.152621
vt 0.963451 0.277311
vt 0.909789 0.375403
vt 0.983015 0.493414
vt 0.388351 0.263290
vt 0.413383 0.395824
vt 0.303161 0.325386
vt 0.321935 0.406470
vt 0.167251 0.424460
vt 0.321329 0.452488
vt 0.292058 0.531313
vt 0.411818 0.468957
vt 0.374320 0.601752
vt 0.270357 0.619220
vt 0.236190 0.554691
vt 0.107042 0.615266
vt 0.126170 0.554735
vt 0.000000 0.577070
vt 0.057988 0.524143
vt 0.250046 0.206087
vt 0.291738 0.066686
vt 0.342610 0.108240
vt 0.401717 0.045802
vt 0.310525 0.003818
vt 0.177689 0.068448
vt 0.148917 0.013744
vt 0.136045 0.113354
vt 0.021192 0.019932
vt 0.120239 0.178585
vt 0.014093 0.156154
vt 0.119387 0.218378
vt 0.019157 0.227831
vt 0.131928 0.288508
vt 0.035578 0.355802
vt 0.514092 0.432767
vt 0.600573 0.418507
vt 0.617668 0.513948
vt 0.727781 0.491894
vt 0.711356 0.597982
vt 0.780072 0.506914
vt 0.811413 0.575928
vt 0.845268 0.568513
vt 0.831692 0.700267
vt 0.774373 0.685247
vt 0.835379 0.802362
vt 0.857167 0.706921
vt 0.739680 0.415275
vt 0.850966 0.413184
f 1/1/1 2/2/2 3/3/3
f 2/2/2 4/4/4 3/3/3
f 3/3/3 4/4/4 5/5/5
f 5/5/5 4/4/4 6/6/6
f 6/6/6 4/4/4 7/7/7
f 4/4/4 8/8/8 7/7/7
f 7/7/7 8/8/8 9/9/9
f 8/8/8 10/10/10 9/9/9
f 9/9/9 10/10/10 11/11/11
f 10/10/10 12/12/12 11/11/11
f 11/11/11 12/12/12 13/13/13
f 13/13/13 12/12/12 2/2/2
f 2/2/2 12/12/12 4/4/4
f 12/12/12 10/10/10 4/4/4
f 4/4/4 10/10/10 8/8/8
f 3/3/3 5/5/5 1/1/1
f 7/7/7 9/9/9 14/14/14
f 15/15/15 16/16/16 17/17/17
f 16/16/16 18/18/18 17/17/17
f 17/17/17 18/18/18 19/19/19
f 18/18/18 20/20/20 19/19/19
f 19/19/19 20/20/20 21/21/21
f 21/21/21 20/20/20 22/22/22
f 20/20/20 18/18/18 22/22/22
f 22/22/22 18/18/18 16/16/16
f 15/15/15 17/17/17 23/23/23
f 23/23/23 17/17/17 24/24/24
f 17/17/17 19/19/19 24/24/24
f 24/24/24 19/19/19 25/25/25
f 19/19/19 26/26/26 25/25/25
f 25/25/25 26/26/26 27/27/27
f 27/27/27 26/26/26 28/28/28
f 26/26/26 29/29/29 28/28/28
f 28/28/28 29/29/29 30/30/30
f 29/29/29 31/31/31 30/30/30
f 30/30/30 31/31/31 32/32/32
f 31/31/31 33/33/33 32/32/32
f 32/32/32 33/33/33 34/34/34
f 33/33/33 35/35/35 34/34/34
f 34/34/34 35/35/35 36/36/36
f 36/36/36 35/35/35 37/37/37
f 37/37/37 35/35/35 19/19/19
f 35/35/35 33/33/33 19/19/19
f 33/33/33 31/31/31 19/19/19
f 31/31/31 29/29/29 19/19/19
f 19/19/19 29/29/29 26/26/26
f 24/24/24 25/25/25 23/23/23
f 23/23/23 25/25/25 27/27/27
f 36/36/36 37/37/37 38/38/38
f 38/38/38 37/37/37 39/39/39
f 37/37/37 19/19/19 39/39/39
f 39/39/39 19/19/19 40/40/40
f 19/19/19 21/21/21 40/40/40
f 40/40/40 21/21/21 41/41/41
f 41/41/41 21/21/21 42/42/42
f 21/21/21 22/22/22 42/42/42
f 38/38/38 39/39/39 43/43/43
f 39/39/39 40/40/40 43/43/43
f 43/43/43 40/40/40 41/41/41
f 44/44/44 45/45/45 46/46/46
f 45/45/45 47/47/47 46/46/46
f 46/46/46 47/47/47 48/48/48
f 48/48/48 47/47/47 49/49/49
f 47/47/47 45/45/45 49/49/49
f 44/44/44 46/46/46 50/50/50
f 46/46/46 48/48/48 50/50/50
f 50/50/50 48/48/48 51/51/51
f 48/48/48 52/52/52 51/51/51
f 51/51/51 52/52/52 53/53/53
f 53/53/53 52/52/52 54/54/54
f 52/52/52 55/55/55 54/54/54
f 54/54/54 55/55/55 56/56/56
f 55/55/55 57/57/57 56/56/56
f 56/56/56 57/57/57 58/58/58
f 57/57/57 59/59/59 58/58/58
f 58/58/58 59/59/59 60/60/60
f 60/60/60 59/59/59 61/61/61
f 61/61/61 59/59/59 48/48/48
f 59/59/59 57/57/57 48/48/48
f 57/57/57 55/55/55 48/48/48
f 48/48/48 55/55/55 52/52/52
f 44/44/44 50/50/50 62/62/62
f 50/50/50 51/51/51 62/62/62
f 62/62/62 51/51/51 53/53/53
f 60/60/60 61/61/61 63/63/63
f 63/63/63 61/61/61 64/64/64
f 61/61/61 48/48/48 64/64/64
f 48/48/48 49/49/49 64/64/64
f 64/64/64 49/49/49 65/65/65
f 49/49/49 45/45/45 65/65/65
f 63/63/63 64/64/64 66/66/66
f 64/64/64 65/65/65 66/66/66
f 67/67/67 68/68/68 69/69/69
f 69/69/69 68/68/68 70/70/70
f 70/70/70 68/68/68 71/71/71
f 68/68/68 72/72/72 71/71/71
f 72/72/72 73/73/73 71/71/71
f 71/71/71 73/73/73 74/74/74
f 73/73/73 75/75/75 74/74/74
f 74/74/74 75/75/75 76/76/76
f 75/75/75 77/77/77 76/76/76
f 68/68/68 67/67/67 72/72/72
f 78/78/78 79/79/79 76/76/76
f 76/76/76 79/79/79 74/74/74
f 74/74/74 79/79/79 71/71/71
f 79/79/79 80/80/80 71/71/71
f 80/80/80 81/81/81 71/71/71
f 71/71/71 81/81/81 70/70/70
f 81/81/81 82/82/82 70/70/70
f 70/70/70 82/82/82 69/69/69
f 81/81/81 83/83/83 82/82/82
f 84/84/84 85/85/85 86/86/86
f 85/85/85 87/87/87 86/86/86
f 86/86/86 87/87/87 88/88/88
f 87/87/87 89/89/89 88/88/88
f 88/88/88 89/89/89 90/90/90
f 89/89/89 91/91/91 90/90/90
f 91/91/91 92/92/92 90/90/90
f 92/92/92 93/93/93 90/90/90
f 90/90/90 93/93/93 94/94/94
f 93/93/93 95/95/95 94/94/94
f 94/94/94 95/95/95 96/96/96
f 95/95/95 97/97/97 96/96/96
f 97/97/97 98/98/98 96/96/96
f 98/98/98 88/88/88 96/96/96
f 96/96/96 88/88/88 94/94/94
f 88/88/88 90/90/90 94/94/94
f 87/87/87 85/85/85 89/89/89
f 85/85/85 91/91/91 89/89/89
f 99/99/99 100/100/100 101/101/101
f 101/101/101 100/100/100 102/102/102
f 102/102/102 100/100/100 103/103/103
f 100/100/100 104/104/104 103/103/103
f 103/103/103 104/104/104 105/105/105
f 104/104/104 106/106/106 105/105/105
f 105/105/105 106/106/106 107/107/107
f 106/106/106 108/108/108 107/107/107
f 107/107/107 108/108/108 109/109/109
f 108/108/108 110/110/110 109/109/109
f 109/109/109 110/110/110 111/111/111
f 110/110/110 112/112/112 111/111/111
f 111/111/111 112/112/112 113/113/113
f 100/100/100 99/99/99 104/104/104
f 104/104/104 99/99/99 106/106/106
f 106/106/106 99/99/99 108/108/108
f 108/108/108 99/99/99 110/110/110
f 99/99/99 112/112/112 110/110/110
f 114/114/114 115/115/115 116/116/116
f 115/115/115 117/117/117 116/116/116
f 116/116/116 117/117/117 118/118/118
f 117/117/117 119/119/119 118/118/118
f 118/118/118 119/119/119 120/120/120
f 119/119/119 121/121/121 120/120/120
f 121/121/121 122/122/122 120/120/120
f 120/120/120 122/122/122 118/118/118
f 118/118/118 122/122/122 123/123/123
f 123/123/123 122/122/122 124/124/124
f 124/124/124 122/122/122 125/125/125
f 122/122/122 121/121/121 125/125/125
f 115/115/115 126/126/126 117/117/117
f 117/117/117 126/126/126 119/119/119
f 126/126/126 127/127/127 119/119/119
f 119/119/119 127/127/127 121/121/121
