# 3ds Max Wavefront OBJ Exporter v0.97b - (c)2007 guruware
# File Created: 10.09.2015 06:28:07

mtllib 3d-model.mtl

#
# object PISO_2_001
#

v  4.3727 0.0000 -0.4128
v  4.0287 0.0000 -0.1007
v  4.0287 106.6929 -0.1007
v  4.3727 106.6929 -0.4128
v  5.1890 0.0000 -0.8494
v  4.7629 0.0000 -0.6646
v  4.7629 106.6929 -0.6646
v  5.1890 106.6929 -0.8494
v  6.1024 0.0000 -1.0003
v  5.6395 0.0000 -0.9623
v  5.6395 106.6929 -0.9623
v  6.1024 106.6929 -1.0003
v  1.8893 0.0000 0.7272
v  1.6942 0.0000 0.6012
v  1.6942 106.6929 0.6012
v  1.8893 106.6929 0.7272
v  0.3550 0.0000 0.0942
v  0.2690 0.0000 0.1723
v  0.2690 106.6929 0.1723
v  0.3550 106.6929 0.0942
v  -1.9685 0.0000 1.4215
v  -2.3928 0.0000 1.3867
v  -2.3928 106.6929 1.3867
v  -1.9685 106.6929 1.4215
v  2.1024 0.0000 0.8196
v  2.1024 106.6929 0.8196
v  3.2288 0.0000 0.7272
v  3.0157 0.0000 0.8196
v  3.0157 106.6929 0.8196
v  3.2288 106.6929 0.7272
v  2.7905 0.0000 0.8760
v  2.5591 0.0000 0.8950
v  2.5591 106.6929 0.8950
v  2.7905 106.6929 0.8760
v  -0.3829 0.0000 0.8829
v  -0.7407 0.0000 1.1137
v  -0.7407 106.6929 1.1137
v  -0.3829 106.6929 0.8829
v  -2.8058 0.0000 1.2832
v  -2.8058 106.6929 1.2832
v  -4.2060 0.0000 0.1723
v  -4.2920 0.0000 0.0942
v  -4.2920 106.6929 0.0942
v  -4.2060 106.6929 0.1723
v  1.2198 0.0000 0.0942
v  1.1223 0.0000 0.0313
v  1.1223 106.6929 0.0313
v  1.2198 106.6929 0.0942
v  1.0157 0.0000 -0.0149
v  1.0157 106.6929 -0.0149
v  -3.1963 0.0000 1.1137
v  -3.5541 0.0000 0.8829
v  -3.5541 106.6929 0.8829
v  -3.1963 106.6929 1.1137
v  2.3276 0.0000 0.8760
v  2.3276 106.6929 0.8760
v  -1.1312 0.0000 1.2832
v  -1.1312 106.6929 1.2832
v  0.9031 0.0000 -0.0432
v  0.9031 106.6929 -0.0432
v  0.4525 0.0000 0.0313
v  0.4525 106.6929 0.0313
v  0.6717 0.0000 -0.0432
v  0.5591 0.0000 -0.0149
v  0.5591 106.6929 -0.0149
v  0.6717 106.6929 -0.0432
v  1.3058 0.0000 0.1723
v  1.3058 106.6929 0.1723
v  3.4239 0.0000 0.6012
v  3.4239 106.6929 0.6012
v  3.5959 0.0000 0.4452
v  3.5959 106.6929 0.4452
v  6.5652 0.0000 -0.9623
v  6.5652 106.6929 -0.9623
v  1.5222 0.0000 0.4452
v  1.5222 106.6929 0.4452
v  0.7874 0.0000 -0.0526
v  0.7874 106.6929 -0.0526
v  -1.5442 0.0000 1.3867
v  -1.5442 106.6929 1.3867
v  -0.0676 0.0000 0.5969
v  -0.0676 106.6929 0.5969
v  -7.0997 0.0000 -0.2004
v  -7.2874 0.0000 -0.2474
v  -7.2874 106.6929 -0.2474
v  -7.0997 106.6929 -0.2004
v  -7.4803 0.0000 -0.2632
v  -7.6732 0.0000 -0.2474
v  -7.6732 106.6929 -0.2474
v  -7.4803 106.6929 -0.2632
v  -8.0384 0.0000 -0.1234
v  -8.2010 0.0000 -0.0184
v  -8.2010 106.6929 -0.0184
v  -8.0384 106.6929 -0.1234
v  -3.8694 0.0000 0.5969
v  -3.8694 106.6929 0.5969
v  -6.9222 0.0000 -0.1234
v  -6.9222 106.6929 -0.1234
v  -4.3895 0.0000 0.0313
v  -4.4961 0.0000 -0.0149
v  -4.4961 106.6929 -0.0149
v  -4.3895 106.6929 0.0313
v  -8.3444 0.0000 0.1116
v  -8.3444 106.6929 0.1116
v  -4.7244 0.0000 -0.0526
v  -4.8401 0.0000 -0.0432
v  -4.8401 106.6929 -0.0432
v  -4.7244 106.6929 -0.0526
v  -4.6087 0.0000 -0.0432
v  -4.6087 106.6929 -0.0432
v  -4.9528 0.0000 -0.0149
v  -4.9528 106.6929 -0.0149
v  -5.5706 0.0000 0.4952
v  -5.6772 0.0000 0.5414
v  -5.6772 106.6929 0.5414
v  -5.5706 106.6929 0.4952
v  -5.7898 0.0000 0.5696
v  -5.9055 0.0000 0.5791
v  -5.9055 106.6929 0.5791
v  -5.7898 106.6929 0.5696
v  -5.4731 0.0000 0.4322
v  -5.4731 106.6929 0.4322
v  -6.3379 0.0000 0.4322
v  -6.4239 0.0000 0.3542
v  -6.4239 106.6929 0.3542
v  -6.3379 106.6929 0.4322
v  -6.7596 0.0000 -0.0184
v  -6.7596 106.6929 -0.0184
v  -5.0593 0.0000 0.0313
v  -5.1568 0.0000 0.0942
v  -5.1568 106.6929 0.0942
v  -5.0593 106.6929 0.0313
v  -5.2428 0.0000 0.1723
v  -5.2428 106.6929 0.1723
v  -5.3871 0.0000 0.3542
v  -5.3871 106.6929 0.3542
v  -6.0212 0.0000 0.5696
v  -6.0212 106.6929 0.5696
v  -6.1339 0.0000 0.5414
v  -6.2404 0.0000 0.4952
v  -6.2404 106.6929 0.4952
v  -6.1339 106.6929 0.5414
v  -6.6163 0.0000 0.1116
v  -6.6163 106.6929 0.1116
v  -7.8609 0.0000 -0.2004
v  -7.8609 106.6929 -0.2004
v  -9.6985 0.0000 0.5725
v  -9.8285 0.0000 0.4886
v  -9.8285 106.6929 0.4886
v  -9.6985 106.6929 0.5725
v  -10.2951 0.0000 0.0313
v  -10.4016 0.0000 -0.0149
v  -10.4016 106.6929 -0.0149
v  -10.2951 106.6929 0.0313
v  -10.7456 0.0000 -0.0432
v  -10.8583 0.0000 -0.0149
v  -10.8583 106.6929 -0.0149
v  -10.7456 106.6929 -0.0432
v  -10.9648 0.0000 0.0313
v  -10.9648 106.6929 0.0313
v  -11.0623 0.0000 0.0942
v  -11.0623 106.6929 0.0942
v  -9.4063 0.0000 0.6718
v  -9.5564 0.0000 0.6341
v  -9.5564 106.6929 0.6341
v  -9.4063 106.6929 0.6718
v  -11.6466 0.0000 0.6498
v  -11.8241 0.0000 0.7269
v  -11.8241 106.6929 0.7269
v  -11.6466 106.6929 0.6498
v  -12.0119 0.0000 0.7739
v  -12.0119 106.6929 0.7739
v  -12.2047 0.0000 0.7897
v  -12.3976 0.0000 0.7739
v  -12.3976 106.6929 0.7739
v  -12.2047 106.6929 0.7897
v  -11.3407 0.0000 0.4149
v  -11.4840 0.0000 0.5449
v  -11.4840 106.6929 0.5449
v  -11.3407 106.6929 0.4149
v  -12.5853 0.0000 0.7269
v  -12.5853 106.6929 0.7269
v  -8.5607 0.0000 0.3846
v  -8.6754 0.0000 0.4886
v  -8.6754 106.6929 0.4886
v  -8.5607 106.6929 0.3846
v  -10.5142 0.0000 -0.0432
v  -10.6299 0.0000 -0.0526
v  -10.6299 106.6929 -0.0526
v  -10.5142 106.6929 -0.0432
v  -10.1115 0.0000 0.1723
v  -10.1975 0.0000 0.0942
v  -10.1975 106.6929 0.0942
v  -10.1115 106.6929 0.1723
v  -12.7628 0.0000 0.6498
v  -12.9254 0.0000 0.5449
v  -12.9254 106.6929 0.5449
v  -12.7628 106.6929 0.6498
v  -8.8055 0.0000 0.5725
v  -8.9475 0.0000 0.6341
v  -8.9475 106.6929 0.6341
v  -8.8055 106.6929 0.5725
v  -11.1483 0.0000 0.1723
v  -11.1483 106.6929 0.1723
v  -13.3471 0.0000 0.0942
v  -13.4447 0.0000 0.0313
v  -13.4447 106.6929 0.0313
v  -13.3471 106.6929 0.0942
v  -13.0688 0.0000 0.4149
v  -13.0688 106.6929 0.4149
v  -9.0977 0.0000 0.6718
v  -9.2520 0.0000 0.6844
v  -9.2520 106.6929 0.6844
v  -9.0977 106.6929 0.6718
v  -9.9432 0.0000 0.3846
v  -9.9432 106.6929 0.3846
v  -15.2955 0.0000 0.4952
v  -15.3931 0.0000 0.4322
v  -15.3931 106.6929 0.4322
v  -15.2955 106.6929 0.4952
v  -16.5008 0.0000 -0.3495
v  -16.7323 0.0000 -0.3685
v  -16.7323 106.6929 -0.3685
v  -16.5008 106.6929 -0.3495
v  -16.9637 0.0000 -0.3495
v  -16.9637 106.6929 -0.3495
v  -14.2120 0.0000 0.0942
v  -14.2979 0.0000 0.1723
v  -14.2979 106.6929 0.1723
v  -14.2120 106.6929 0.0942
v  -17.1890 0.0000 -0.2931
v  -17.1890 106.6929 -0.2931
v  3.7402 106.6929 0.2632
v  3.7402 0.0000 0.2632
v  -15.8674 0.0000 -0.0748
v  -16.0626 0.0000 -0.2007
v  -16.0626 106.6929 -0.2007
v  -15.8674 106.6929 -0.0748
v  1.3780 0.0000 0.2632
v  1.3780 106.6929 0.2632
v  -13.5512 0.0000 -0.0149
v  -13.5512 106.6929 -0.0149
v  -16.2756 0.0000 -0.2931
v  -16.2756 106.6929 -0.2931
v  -13.8952 0.0000 -0.0432
v  -14.0079 0.0000 -0.0149
v  -14.0079 106.6929 -0.0149
v  -13.8952 106.6929 -0.0432
v  -14.9606 0.0000 0.5791
v  -15.0764 0.0000 0.5696
v  -15.0764 106.6929 0.5696
v  -14.9606 106.6929 0.5791
v  -13.2611 0.0000 0.1723
v  -13.2611 106.6929 0.1723
v  -14.7323 0.0000 0.5414
v  -14.8449 0.0000 0.5696
v  -14.8449 106.6929 0.5696
v  -14.7323 106.6929 0.5414
v  -15.6954 0.0000 0.0813
v  -15.6954 106.6929 0.0813
v  -17.4020 0.0000 -0.2007
v  -17.4020 106.6929 -0.2007
v  -14.5282 0.0000 0.4322
v  -14.6258 0.0000 0.4952
v  -14.6258 106.6929 0.4952
v  -14.5282 106.6929 0.4322
v  -14.1144 0.0000 0.0313
v  -14.1144 106.6929 0.0313
v  -13.7795 0.0000 -0.0526
v  -13.7795 106.6929 -0.0526
v  -13.6638 0.0000 -0.0432
v  -13.6638 106.6929 -0.0432
v  -17.5971 0.0000 -0.0748
v  -17.5971 106.6929 -0.0748
v  -15.1890 0.0000 0.5414
v  -15.1890 106.6929 0.5414
v  -15.4791 0.0000 0.3542
v  -15.4791 106.6929 0.3542
v  -17.9134 0.0000 0.2632
v  -17.9134 106.6929 0.2632
v  -17.7691 106.6929 0.0813
v  -17.7691 0.0000 0.0813
v  -14.4422 0.0000 0.3542
v  -14.4422 106.6929 0.3542
v  -10.0394 0.0000 0.2632
v  -10.0394 106.6929 0.2632
v  11.4218 0.0000 0.5059
v  11.1925 0.0000 0.7139
v  11.1925 106.6929 0.7139
v  11.4218 106.6929 0.5059
v  -5.3150 106.6929 0.2632
v  -5.3150 0.0000 0.2632
v  10.3480 0.0000 1.0803
v  10.0394 0.0000 1.1056
v  10.0394 106.6929 1.1056
v  10.3480 106.6929 1.0803
v  9.7308 0.0000 1.0803
v  9.7308 106.6929 1.0803
v  9.4304 0.0000 1.0050
v  9.4304 106.6929 1.0050
v  14.1466 0.0000 -1.3709
v  13.5459 0.0000 -1.2203
v  13.5459 106.6929 -1.2203
v  14.1466 106.6929 -1.3709
v  10.9323 0.0000 0.8818
v  10.9323 106.6929 0.8818
v  10.6483 0.0000 1.0050
v  10.6483 106.6929 1.0050
v  17.5287 0.0000 -0.2220
v  17.0701 0.0000 -0.6381
v  17.0701 106.6929 -0.6381
v  17.5287 106.6929 -0.2220
v  15.3810 0.0000 -1.3709
v  14.7638 0.0000 -1.4215
v  14.7638 106.6929 -1.4215
v  15.3810 106.6929 -1.3709
v  8.1761 0.0000 -0.1007
v  7.8321 0.0000 -0.4128
v  7.8321 106.6929 -0.4128
v  8.1761 106.6929 -0.1007
v  -4.1339 0.0000 0.2632
v  -4.1339 106.6929 0.2632
v  -14.3701 106.6929 0.2632
v  -14.3701 0.0000 0.2632
v  16.5497 0.0000 -0.9739
v  16.5497 106.6929 -0.9739
v  8.6569 106.6929 0.5059
v  8.6569 0.0000 0.5059
v  8.4646 0.0000 0.2632
v  8.4646 106.6929 0.2632
v  17.9134 106.6929 0.2632
v  17.9134 0.0000 0.2632
v  12.9778 0.0000 -0.9739
v  12.4575 0.0000 -0.6381
v  12.4575 106.6929 -0.6381
v  12.9778 106.6929 -0.9739
v  -11.2205 106.6929 0.2632
v  -11.2205 0.0000 0.2632
v  -6.4961 0.0000 0.2632
v  -6.4961 106.6929 0.2632
v  -13.1890 0.0000 0.2632
v  -13.1890 106.6929 0.2632
v  11.9989 0.0000 -0.2220
v  11.9989 106.6929 -0.2220
v  -15.5512 0.0000 0.2632
v  -15.5512 106.6929 0.2632
v  0.1969 106.6929 0.2632
v  0.1969 0.0000 0.2632
v  15.9816 0.0000 -1.2203
v  15.9816 106.6929 -1.2203
v  11.6142 106.6929 0.2632
v  11.6142 0.0000 0.2632
v  -8.4646 106.6929 0.2632
v  -8.4646 0.0000 0.2632
v  7.4418 0.0000 -0.6646
v  7.0157 0.0000 -0.8494
v  7.0157 106.6929 -0.8494
v  7.4418 106.6929 -0.6646
v  8.8862 0.0000 0.7139
v  8.8862 106.6929 0.7139
v  9.1464 0.0000 0.8818
v  9.1464 106.6929 0.8818
# 362 vertices

vn -0.6091 0.0000 -0.7931
vn -0.7302 -0.0000 -0.6832
vn -0.3216 0.0000 -0.9469
vn -0.4717 0.0000 -0.8818
vn 0.0000 0.0000 -1.0000
vn -0.1630 0.0000 -0.9866
vn 0.4717 0.0000 -0.8818
vn 0.6091 0.0000 -0.7931
vn 0.1630 0.0000 -0.9866
vn 0.3216 0.0000 -0.9469
vn 0.7302 -0.0000 -0.6832
vn -0.7836 -0.0000 -0.6212
vn 0.7836 -0.0000 -0.6212
# 13 vertex normals

vt 0.0000 0.0000 0.0000
# 1 texture coords

g PISO_2_001
usemtl wire_224086086
s off
f 1/1/1 2/1/2 3/1/2 4/1/1 
f 5/1/3 6/1/4 7/1/4 8/1/3 
f 9/1/5 10/1/6 11/1/6 12/1/5 
f 13/1/7 14/1/8 15/1/8 16/1/7 
f 17/1/1 18/1/2 19/1/2 20/1/1 
f 21/1/5 22/1/9 23/1/9 24/1/5 
f 6/1/4 1/1/1 4/1/1 7/1/4 
f 25/1/10 13/1/7 16/1/7 26/1/10 
f 27/1/4 28/1/3 29/1/3 30/1/4 
f 31/1/6 32/1/5 33/1/5 34/1/6 
f 35/1/1 36/1/4 37/1/4 38/1/1 
f 22/1/9 39/1/10 40/1/10 23/1/9 
f 41/1/11 42/1/8 43/1/8 44/1/11 
f 45/1/8 46/1/7 47/1/7 48/1/8 
f 46/1/7 49/1/10 50/1/10 47/1/7 
f 51/1/7 52/1/8 53/1/8 54/1/7 
f 32/1/5 55/1/9 56/1/9 33/1/5 
f 36/1/4 57/1/3 58/1/3 37/1/4 
f 49/1/10 59/1/9 60/1/9 50/1/10 
f 10/1/6 5/1/3 8/1/3 11/1/6 
f 61/1/4 17/1/1 20/1/1 62/1/4 
f 63/1/6 64/1/3 65/1/3 66/1/6 
f 67/1/11 45/1/8 48/1/8 68/1/11 
f 64/1/3 61/1/4 62/1/4 65/1/3 
f 28/1/3 31/1/6 34/1/6 29/1/3 
f 69/1/1 27/1/4 30/1/4 70/1/1 
f 71/1/2 69/1/1 70/1/1 72/1/2 
f 73/1/9 9/1/5 12/1/5 74/1/9 
f 14/1/8 75/1/11 76/1/11 15/1/8 
f 59/1/9 77/1/5 78/1/5 60/1/9 
f 77/1/5 63/1/6 66/1/6 78/1/5 
f 79/1/6 21/1/5 24/1/5 80/1/6 
f 57/1/3 79/1/6 80/1/6 58/1/3 
f 81/1/2 35/1/1 38/1/1 82/1/2 
f 55/1/9 25/1/10 26/1/10 56/1/9 
f 83/1/10 84/1/9 85/1/9 86/1/10 
f 87/1/5 88/1/6 89/1/6 90/1/5 
f 91/1/4 92/1/1 93/1/1 94/1/4 
f 52/1/8 95/1/11 96/1/11 53/1/8 
f 97/1/7 83/1/10 86/1/10 98/1/7 
f 99/1/7 100/1/10 101/1/10 102/1/7 
f 92/1/1 103/1/2 104/1/2 93/1/1 
f 105/1/5 106/1/6 107/1/6 108/1/5 
f 39/1/10 51/1/7 54/1/7 40/1/10 
f 109/1/9 105/1/5 108/1/5 110/1/9 
f 106/1/6 111/1/3 112/1/3 107/1/6 
f 113/1/4 114/1/3 115/1/3 116/1/4 
f 117/1/6 118/1/5 119/1/5 120/1/6 
f 121/1/1 113/1/4 116/1/4 122/1/1 
f 123/1/8 124/1/11 125/1/11 126/1/8 
f 127/1/8 97/1/7 98/1/7 128/1/8 
f 129/1/4 130/1/1 131/1/1 132/1/4 
f 111/1/3 129/1/4 132/1/4 112/1/3 
f 130/1/1 133/1/2 134/1/2 131/1/1 
f 135/1/2 121/1/1 122/1/1 136/1/2 
f 118/1/5 137/1/9 138/1/9 119/1/5 
f 42/1/8 99/1/7 102/1/7 43/1/8 
f 100/1/10 109/1/9 110/1/9 101/1/10 
f 139/1/10 140/1/7 141/1/7 142/1/10 
f 143/1/11 127/1/8 128/1/8 144/1/11 
f 114/1/3 117/1/6 120/1/6 115/1/3 
f 137/1/9 139/1/10 142/1/10 138/1/9 
f 140/1/7 123/1/8 126/1/8 141/1/7 
f 88/1/6 145/1/3 146/1/3 89/1/6 
f 145/1/3 91/1/4 94/1/4 146/1/3 
f 147/1/7 148/1/8 149/1/8 150/1/7 
f 151/1/7 152/1/10 153/1/10 154/1/7 
f 155/1/6 156/1/3 157/1/3 158/1/6 
f 156/1/3 159/1/4 160/1/4 157/1/3 
f 159/1/4 161/1/1 162/1/1 160/1/4 
f 163/1/9 164/1/10 165/1/10 166/1/9 
f 167/1/4 168/1/3 169/1/3 170/1/4 
f 168/1/3 171/1/6 172/1/6 169/1/3 
f 173/1/5 174/1/9 175/1/9 176/1/5 
f 177/1/2 178/1/1 179/1/1 180/1/2 
f 174/1/9 181/1/10 182/1/10 175/1/9 
f 171/1/6 173/1/5 176/1/5 172/1/6 
f 183/1/2 184/1/1 185/1/1 186/1/2 
f 187/1/9 188/1/5 189/1/5 190/1/9 
f 191/1/11 192/1/8 193/1/8 194/1/11 
f 195/1/7 196/1/8 197/1/8 198/1/7 
f 199/1/4 200/1/3 201/1/3 202/1/4 
f 192/1/8 151/1/7 154/1/7 193/1/8 
f 161/1/1 203/1/2 204/1/2 162/1/1 
f 188/1/5 155/1/6 158/1/6 189/1/5 
f 181/1/10 195/1/7 198/1/7 182/1/10 
f 178/1/1 167/1/4 170/1/4 179/1/1 
f 205/1/8 206/1/7 207/1/7 208/1/8 
f 196/1/8 209/1/11 210/1/11 197/1/8 
f 152/1/10 187/1/9 190/1/9 153/1/10 
f 184/1/1 199/1/4 202/1/4 185/1/1 
f 211/1/6 212/1/5 213/1/5 214/1/6 
f 84/1/9 87/1/5 90/1/5 85/1/9 
f 212/1/5 163/1/9 166/1/9 213/1/5 
f 164/1/10 147/1/7 150/1/7 165/1/10 
f 148/1/8 215/1/11 216/1/11 149/1/8 
f 200/1/3 211/1/6 214/1/6 201/1/3 
f 217/1/7 218/1/8 219/1/8 220/1/7 
f 221/1/9 222/1/5 223/1/5 224/1/9 
f 222/1/5 225/1/6 226/1/6 223/1/5 
f 227/1/1 228/1/2 229/1/2 230/1/1 
f 225/1/6 231/1/3 232/1/3 226/1/6 
f 71/1/2 72/1/2 233/1/12 234/1/12 
f 234/1/12 233/1/12 3/1/2 2/1/2 
f 235/1/8 236/1/7 237/1/7 238/1/8 
f 76/1/11 75/1/11 239/1/13 240/1/13 
f 240/1/13 239/1/13 67/1/11 68/1/11 
f 206/1/7 241/1/10 242/1/10 207/1/7 
f 236/1/7 243/1/10 244/1/10 237/1/7 
f 245/1/6 246/1/3 247/1/3 248/1/6 
f 249/1/5 250/1/9 251/1/9 252/1/5 
f 253/1/11 205/1/8 208/1/8 254/1/11 
f 255/1/3 256/1/6 257/1/6 258/1/3 
f 259/1/11 235/1/8 238/1/8 260/1/11 
f 243/1/10 221/1/9 224/1/9 244/1/10 
f 231/1/3 261/1/4 262/1/4 232/1/3 
f 263/1/1 264/1/4 265/1/4 266/1/1 
f 267/1/4 227/1/1 230/1/1 268/1/4 
f 269/1/5 245/1/6 248/1/6 270/1/5 
f 241/1/10 271/1/9 272/1/9 242/1/10 
f 256/1/6 249/1/5 252/1/5 257/1/6 
f 261/1/4 273/1/1 274/1/1 262/1/4 
f 250/1/9 275/1/10 276/1/10 251/1/9 
f 275/1/10 217/1/7 220/1/7 276/1/10 
f 271/1/9 269/1/5 270/1/5 272/1/9 
f 218/1/8 277/1/11 278/1/11 219/1/8 
f 279/1/12 280/1/12 281/1/2 282/1/2 
f 273/1/1 282/1/2 281/1/2 274/1/1 
f 246/1/3 267/1/4 268/1/4 247/1/3 
f 264/1/4 255/1/3 258/1/3 265/1/4 
f 283/1/2 263/1/1 266/1/1 284/1/2 
f 216/1/11 215/1/11 285/1/13 286/1/13 
f 286/1/13 285/1/13 191/1/11 194/1/11 
f 287/1/2 288/1/1 289/1/1 290/1/2 
f 135/1/2 136/1/2 291/1/12 292/1/12 
f 292/1/12 291/1/12 134/1/2 133/1/2 
f 293/1/6 294/1/5 295/1/5 296/1/6 
f 294/1/5 297/1/9 298/1/9 295/1/5 
f 297/1/9 299/1/10 300/1/10 298/1/9 
f 301/1/6 302/1/3 303/1/3 304/1/6 
f 288/1/1 305/1/4 306/1/4 289/1/1 
f 305/1/4 307/1/3 308/1/3 306/1/4 
f 309/1/11 310/1/8 311/1/8 312/1/11 
f 313/1/9 314/1/5 315/1/5 316/1/9 
f 317/1/11 318/1/8 319/1/8 320/1/11 
f 96/1/11 95/1/11 321/1/13 322/1/13 
f 322/1/13 321/1/13 41/1/11 44/1/11 
f 283/1/2 284/1/2 323/1/12 324/1/12 
f 324/1/12 323/1/12 229/1/2 228/1/2 
f 310/1/8 325/1/7 326/1/7 311/1/8 
f 327/1/11 328/1/11 329/1/13 330/1/13 
f 330/1/13 329/1/13 317/1/11 320/1/11 
f 331/1/13 332/1/13 309/1/11 312/1/11 
f 333/1/4 334/1/1 335/1/1 336/1/4 
f 302/1/3 333/1/4 336/1/4 303/1/3 
f 177/1/2 180/1/2 337/1/12 338/1/12 
f 338/1/12 337/1/12 204/1/2 203/1/2 
f 314/1/5 301/1/6 304/1/6 315/1/5 
f 125/1/11 124/1/11 339/1/13 340/1/13 
f 340/1/13 339/1/13 143/1/11 144/1/11 
f 210/1/11 209/1/11 341/1/13 342/1/13 
f 342/1/13 341/1/13 253/1/11 254/1/11 
f 334/1/1 343/1/2 344/1/2 335/1/1 
f 278/1/11 277/1/11 345/1/13 346/1/13 
f 346/1/13 345/1/13 259/1/11 260/1/11 
f 81/1/2 82/1/2 347/1/12 348/1/12 
f 348/1/12 347/1/12 19/1/2 18/1/2 
f 349/1/10 313/1/9 316/1/9 350/1/10 
f 325/1/7 349/1/10 350/1/10 326/1/7 
f 307/1/3 293/1/6 296/1/6 308/1/3 
f 287/1/2 290/1/2 351/1/12 352/1/12 
f 352/1/12 351/1/12 344/1/2 343/1/2 
f 183/1/2 186/1/2 353/1/12 354/1/12 
f 354/1/12 353/1/12 104/1/2 103/1/2 
f 355/1/7 356/1/10 357/1/10 358/1/7 
f 318/1/8 355/1/7 358/1/7 319/1/8 
f 359/1/8 328/1/11 327/1/11 360/1/8 
f 299/1/10 361/1/7 362/1/7 300/1/10 
f 356/1/10 73/1/9 74/1/9 357/1/10 
f 361/1/7 359/1/8 360/1/8 362/1/7 
# 180 polygons

